<svg width="231" height="227" viewBox="0 0 231 227" fill="none" xmlns="http://www.w3.org/2000/svg">
<path d="M228.214 28.3466L203.952 3.0749C203.019 2.10292 201.9 1.32952 200.66 0.801118C199.421 0.272719 198.088 0.000226198 196.74 0H-13.9896C-16.6416 0 -19.185 1.05353 -21.0603 2.92884C-22.9356 4.80414 -23.9891 7.3476 -23.9891 9.99968V294.99C-23.9891 297.643 -22.9356 300.186 -21.0603 302.061C-19.185 303.937 -16.6416 304.99 -13.9896 304.99H221C223.652 304.99 226.196 303.937 228.071 302.061C229.946 300.186 231 297.643 231 294.99V35.2726C231 32.6913 230.002 30.21 228.214 28.3478V28.3466Z" fill="white" fill-opacity="0.04"/>
</svg>
