<svg width="750" height="362" viewBox="0 0 750 362" fill="none" xmlns="http://www.w3.org/2000/svg">
<g opacity="0.5">
<rect x="164.195" y="-202.798" width="405.599" height="405.599" rx="202.8" fill="#2D2D32"/>
<rect x="96.5927" y="-270.401" width="540.822" height="540.822" rx="270.411" fill="#29292E"/>
<rect x="231.798" y="-135.212" width="270.411" height="270.411" rx="135.205" fill="#313136"/>
<rect x="28.99" y="-338.003" width="676.01" height="676.01" rx="338.005" fill="#25252A"/>
<path d="M366.995 337.998C553.67 337.998 705 186.668 705 -0.00671387C705 -186.682 553.67 -338.012 366.995 -338.012C180.32 -338.012 28.99 -186.682 28.99 -0.00671387C28.99 186.668 180.32 337.998 366.995 337.998Z" stroke="white" stroke-opacity="0.08" stroke-width="2.11254" stroke-linecap="round" stroke-dasharray="0.53 8.45"/>
<path d="M366.995 270.397C516.335 270.397 637.399 149.333 637.399 -0.00708008C637.399 -149.347 516.335 -270.411 366.995 -270.411C217.655 -270.411 96.591 -149.347 96.591 -0.00708008C96.591 149.333 217.655 270.397 366.995 270.397Z" stroke="white" stroke-opacity="0.08" stroke-width="2.11254" stroke-linecap="round" stroke-dasharray="0.53 8.45"/>
<path d="M366.995 202.796C479 202.796 569.798 111.998 569.798 -0.0070343C569.798 -112.012 479 -202.81 366.995 -202.81C254.99 -202.81 164.192 -112.012 164.192 -0.0070343C164.192 111.998 254.99 202.796 366.995 202.796Z" stroke="white" stroke-opacity="0.08" stroke-width="2.11254" stroke-linecap="round" stroke-dasharray="0.53 8.45"/>
<path d="M366.996 135.196C441.666 135.196 502.198 74.6641 502.198 -0.00630188C502.198 -74.6767 441.666 -135.209 366.996 -135.209C292.325 -135.209 231.793 -74.6767 231.793 -0.00630188C231.793 74.6641 292.325 135.196 366.996 135.196Z" stroke="white" stroke-opacity="0.08" stroke-width="2.11254" stroke-linecap="round" stroke-dasharray="0.53 8.45"/>
</g>
<path d="M0 360.87H170.842C172.155 360.87 173.455 360.612 174.668 360.109C175.882 359.607 176.984 358.87 177.912 357.942L278.296 257.558C279.224 256.63 280.327 255.893 281.54 255.391C282.753 254.888 284.053 254.63 285.366 254.63H464.565C465.878 254.63 467.178 254.888 468.391 255.391C469.605 255.893 470.707 256.63 471.635 257.558L572.019 357.942C572.947 358.87 574.05 359.607 575.263 360.109C576.476 360.612 577.776 360.87 579.089 360.87H749.931" stroke="white" stroke-opacity="0.05" stroke-width="1.24989"/>
</svg>
