<svg width="39" height="40" viewBox="0 0 39 40" fill="none" xmlns="http://www.w3.org/2000/svg">
<g id="Frame 1321314857">
<circle id="Ellipse 7" cx="19.5" cy="20" r="19.5" fill="#4636FF"/>
<path id="Union" fill-rule="evenodd" clip-rule="evenodd" d="M14.9899 17.9071C14.3647 17.599 13.5926 17.7099 13.0789 18.2236C12.4163 18.8863 12.4316 19.9653 13.1127 20.6089L14.8494 22.2499C15.788 23.1885 16.8649 23.3971 17.2921 22.9796C17.2921 22.9796 15.4312 24.8575 14.5365 25.7958C13.5979 25.0658 12.4507 24.1271 11.3034 23.1885C9.59114 21.7875 6.34136 15.8877 14.8934 12.5503C21.1676 18.113 23.3341 20.0235 23.8128 20.4392C24.4381 20.7474 25.2101 20.6364 25.7238 20.1227C26.3865 19.4601 26.3712 18.381 25.69 17.7374L23.9533 16.0965C23.0147 15.1578 21.9379 14.9493 21.5106 15.3667C21.5106 15.3667 23.3716 13.4888 24.2662 12.5505C25.2048 13.2805 26.352 14.2192 27.4992 15.1578L27.4993 15.1578C29.2116 16.5588 32.4614 22.4587 23.9093 25.796C17.6351 20.2333 15.4686 18.3228 14.9899 17.9071Z" fill="white"/>
<path id="Rectangle 3041" d="M21.4751 9.98313L25.7461 9.98313C25.7461 9.98313 24.6797 10.4028 23.4609 11.6215C22.2422 12.8403 17.9766 17.1059 17.9766 17.1059L15.8432 15.2686L21.4751 9.98313Z" fill="white"/>
<path id="Rectangle 3043" d="M17.0675 28.6741L12.7964 28.6741C12.7964 28.6741 13.8628 28.2545 15.0816 27.0357C16.3003 25.817 20.566 21.5513 20.566 21.5513L22.6993 23.3886L17.0675 28.6741Z" fill="white"/>
</g>
</svg>
