<svg xmlns="http://www.w3.org/2000/svg" width="125" height="49" viewBox="0 0 125 49" fill="none">
<g clip-path="url(#clip0_5_826)">
<path d="M43.0995 2.84058H0.280518V45.6596H43.0995V2.84058Z" fill="#6D6983"/>
<path d="M27.7791 11.8767L10.4189 36.6679H15.6453L33.0054 11.8767H27.7791Z" fill="white"/>
<path d="M73.0725 36.1154C71.6509 36.5826 70.167 36.8324 68.6709 36.8565C66.1293 36.8565 63.8923 36.3328 61.9599 35.2854C60.0926 34.3049 58.5425 32.8138 57.4902 30.986C56.4309 29.1159 55.8886 26.9974 55.9192 24.8484C55.9192 22.1951 56.4813 19.8961 57.6055 17.9515C58.6722 16.0626 60.2506 14.5133 62.1589 13.4818C64.089 12.4423 66.251 11.909 68.4431 11.9317C69.7516 11.9242 71.0554 12.0889 72.321 12.4214C73.4609 12.7214 74.5593 13.1611 75.5914 13.7306L74.5126 16.7313C73.6527 16.2707 72.7413 15.9139 71.7973 15.6682C70.8386 15.3843 69.846 15.2311 68.8463 15.2126C67.1078 15.1778 65.3875 15.5717 63.8373 16.3595C62.4186 17.0924 61.2501 18.2308 60.4805 19.6299C59.6667 21.1538 59.2599 22.862 59.2996 24.5892C59.2705 26.2286 59.6781 27.8462 60.4805 29.2761C61.2595 30.6406 62.4197 31.7481 63.819 32.4627C65.3435 33.2368 67.0347 33.6252 68.7442 33.5939C69.5828 33.5926 70.419 33.5048 71.2396 33.3321C71.9487 33.2002 72.6321 32.9553 73.2636 32.6068V27.7836H68.4064V24.6415H76.568V34.4894C75.8262 35.0742 74.6627 35.6136 73.0777 36.1076L73.0725 36.1154Z" fill="#6D6983"/>
<path d="M86.6046 23.9057C87.23 23.3456 87.9417 22.8902 88.7124 22.5572C89.3293 22.2741 89.9916 22.103 90.6684 22.0519L90.5322 25.194C89.5771 25.1363 88.6248 25.3467 87.7829 25.8015C86.9802 26.2341 86.3144 26.8825 85.8609 27.6736C85.407 28.4458 85.1683 29.3256 85.1697 30.2213V36.5972H82.0276V22.6253H84.8267L85.0623 25.9298C85.4284 25.1563 85.9509 24.4671 86.5967 23.9057H86.6046Z" fill="#6D6983"/>
<path d="M93.8889 25.7099C94.5472 24.5794 95.5038 23.6518 96.654 23.0286C97.8797 22.3645 99.2558 22.0272 100.65 22.0493C102.033 22.025 103.399 22.3626 104.611 23.0286C105.739 23.6515 106.672 24.574 107.308 25.6942C107.956 26.8468 108.288 28.1504 108.269 29.4725C108.286 30.7995 107.955 32.1076 107.308 33.2666C106.672 34.3972 105.732 35.3263 104.593 35.9479C103.364 36.5819 102.002 36.9168 100.619 36.9255C99.2358 36.9341 97.8702 36.6162 96.633 35.9976C95.4877 35.402 94.5344 34.4942 93.8837 33.3792C93.2033 32.1896 92.8594 30.8374 92.8887 29.4673C92.875 28.1471 93.2188 26.8479 93.8837 25.7073L93.8889 25.7099ZM96.654 31.9312C97.0258 32.6509 97.5848 33.257 98.2722 33.6856C99.1379 34.2097 100.157 34.422 101.16 34.2872C102.163 34.1524 103.09 33.6787 103.787 32.9446C104.646 32.0088 105.106 30.774 105.067 29.504C105.103 28.2297 104.644 26.9909 103.787 26.0476C103.38 25.5934 102.88 25.2329 102.321 24.991C101.762 24.7491 101.157 24.6317 100.548 24.6468C99.7348 24.6344 98.9367 24.8631 98.2538 25.304C97.5758 25.7458 97.0238 26.3556 96.6514 27.0741C96.2635 27.8249 96.0612 28.6576 96.0612 29.5027C96.0612 30.3477 96.2635 31.1804 96.6514 31.9312H96.654Z" fill="#6D6983"/>
<path d="M119.607 28.1213L124.765 23.9711L122.843 22.2875L115.627 28.0873V11.9316H112.49V36.5867H115.627V31.3577L117.447 29.8757L121.765 36.5867H125.441L119.607 28.1213Z" fill="#6D6983"/>
</g>
<defs>
<clipPath id="clip0_5_826">
<rect width="125" height="49" fill="white"/>
</clipPath>
</defs>
</svg>