<svg width="220" height="41" viewBox="0 0 220 41" fill="none" xmlns="http://www.w3.org/2000/svg">
<circle cx="20.5" cy="20.5" r="20" fill="#4636FF"/>
<path fill-rule="evenodd" clip-rule="evenodd" d="M26.3738 9.57935H31.7719L20.4261 24.3369H26.3691L31.7719 31.3643H25.6815L20.3524 24.4327L15.4452 30.8155C15.1792 31.1615 14.7675 31.3643 14.331 31.3643H8.93286L20.2787 16.6067H14.3357L8.93287 9.57935H13.9848C14.6396 9.57935 15.2571 9.88354 15.6562 10.4026L20.3524 16.5109L25.2595 10.1282C25.5256 9.78214 25.9373 9.57935 26.3738 9.57935Z" fill="white"/>
<path d="M53.5519 18.9902L56.9442 13.9308H59.755V14.0471L55.1608 20.6378L59.8907 27.4225V27.5H57.0217L53.5519 22.4018L50.082 27.5H47.2131V27.4225L51.9236 20.6378L47.3488 14.0471V13.9308H50.1596L53.5519 18.9902ZM69.9528 27.5H67.5879V22.3825C67.5879 21.1225 66.9288 19.9788 65.63 19.9788C64.3506 19.9788 63.5946 21.1225 63.5946 22.3825V27.5H61.2297V17.924H63.4202L63.5946 19.0871C64.0986 18.1178 65.2036 17.7689 66.1146 17.7689C67.2583 17.7689 68.402 18.2342 68.9448 19.5523C69.7977 18.1954 70.9026 17.8077 72.1432 17.8077C74.8571 17.8077 76.1946 19.4748 76.1946 22.3437V27.5H73.8297V22.3437C73.8297 21.0837 73.3063 20.0175 72.0269 20.0175C70.7476 20.0175 69.9528 21.1225 69.9528 22.3825V27.5ZM86.1096 19.2615L86.1871 17.9434H88.4551V27.5H86.2259L86.1096 26.1043C85.5668 27.2286 84.0742 27.7714 83.008 27.7908C80.1779 27.8102 78.0843 26.0655 78.0843 22.712C78.0843 19.4166 80.2748 17.6914 83.0662 17.7108C84.3456 17.7108 85.5668 18.3117 86.1096 19.2615ZM83.2794 19.8237C81.7093 19.8237 80.4493 20.8898 80.4493 22.712C80.4493 24.5342 81.7093 25.6197 83.2794 25.6197C87.0013 25.6197 87.0013 19.8237 83.2794 19.8237ZM90.4581 17.9434H92.6485L92.823 19.0483C93.5596 17.8658 94.5482 17.6914 95.5175 17.6914C96.5061 17.6914 97.4559 18.0791 97.9793 18.6025L96.9132 20.6572C96.4285 20.2502 95.9827 20.0369 95.2073 20.0369C93.9667 20.0369 92.823 20.696 92.823 22.46V27.5H90.4581V17.9434ZM98.805 13.9502H101.17V21.7815L104.388 17.9434H107.218V18.0791L103.322 22.4406L107.761 27.3255V27.5H104.911L101.17 23.1772V27.5H98.805V13.9502ZM118.318 23.5649H110.855C111.01 24.7474 112.038 25.6003 113.705 25.6003C114.577 25.6003 115.721 25.2708 116.264 24.7086L117.776 26.2012C116.768 27.248 115.12 27.752 113.666 27.752C110.371 27.752 108.413 25.7166 108.413 22.6538C108.413 19.7462 110.39 17.6526 113.492 17.6526C116.69 17.6526 118.687 19.6298 118.318 23.5649ZM110.894 21.6071H116.05C115.895 20.3665 114.926 19.7462 113.569 19.7462C112.29 19.7462 111.243 20.3665 110.894 21.6071ZM120.694 15.5009L123.058 15.2489V17.9628H125.695V19.9982H123.039V24.1271C123.039 25.0382 123.543 25.484 124.28 25.484C124.648 25.484 125.074 25.3677 125.423 25.1932L126.082 27.2092C125.404 27.4806 124.842 27.5969 124.125 27.6163C122.05 27.6938 120.694 26.5114 120.694 24.1271V19.9982H118.91V17.9628H120.694V15.5009ZM135.027 18.932L133.709 20.4828C133.03 19.8431 132.255 19.6298 131.344 19.6298C130.219 19.6298 129.599 19.9788 129.599 20.5797C129.599 21.2 130.161 21.5489 131.382 21.6265C133.185 21.7428 135.473 22.1498 135.473 24.6892C135.473 26.3757 134.096 27.8295 131.363 27.8295C129.851 27.8295 128.339 27.5775 126.943 26.1237L128.106 24.4372C128.785 25.1932 130.336 25.7554 131.402 25.7748C132.294 25.7942 133.127 25.3289 133.127 24.6311C133.127 23.972 132.584 23.7006 131.227 23.6231C129.425 23.4874 127.273 22.8283 127.273 20.6572C127.273 18.4474 129.56 17.672 131.305 17.672C132.798 17.672 133.922 17.9628 135.027 18.932Z" fill="#414141"/>
<path d="M140.547 27V23.5925H144.134V27H140.547ZM157.593 24.5391H150.343L149.122 27H145.204L152.009 13.9949H155.928L162.733 27H158.814L157.593 24.5391ZM151.602 22.0024H156.354L153.987 17.213L151.602 22.0024ZM164.863 27V13.9949H168.374V27H164.863Z" fill="#4636FF"/>
</svg>
