<svg width="129" height="49" viewBox="0 0 129 49" fill="none" xmlns="http://www.w3.org/2000/svg">
<g clip-path="url(#clip0_5_846)">
<path d="M39.9849 20.4747C40.9614 17.5356 40.6219 14.3185 39.0569 11.6477C36.7031 7.55108 31.9727 5.44295 27.3555 6.43558C23.33 1.95742 16.4365 1.59205 11.9584 5.61755C10.5357 6.89472 9.4784 8.52432 8.88347 10.3415C5.8506 10.9623 3.2316 12.8635 1.69577 15.5536C-0.683966 19.6438 -0.143999 24.8041 3.03113 28.3123C2.05143 31.2514 2.3877 34.4686 3.9494 37.1393C6.3065 41.2359 11.0401 43.3441 15.6605 42.3515C17.7169 44.6665 20.669 45.9825 23.7665 45.9663C28.5001 45.9696 32.697 42.9141 34.1423 38.4068C37.1751 37.7827 39.7941 35.8848 41.33 33.1946C43.6806 29.111 43.1374 23.9797 39.9849 20.478V20.4747ZM23.7665 43.1404C21.875 43.1404 20.0449 42.4808 18.5964 41.2683L18.8518 41.1228L27.4428 36.1628C27.8793 35.9074 28.1444 35.4418 28.1477 34.9374V22.8254L31.7787 24.927C31.8143 24.9464 31.8401 24.9788 31.8466 25.0208V35.057C31.8369 39.5158 28.2253 43.1274 23.7665 43.1371V43.1404ZM6.40027 35.7231C5.4529 34.087 5.1134 32.1697 5.43997 30.304L5.6954 30.456L14.2928 35.416C14.7261 35.6714 15.2628 35.6714 15.6961 35.416L26.2012 29.3599V33.5536C26.2012 33.5988 26.1786 33.6376 26.143 33.6635L17.4421 38.6816C13.575 40.9094 8.6345 39.5837 6.4035 35.7231H6.40027ZM4.13693 17.0118C5.09077 15.3661 6.5975 14.1083 8.38877 13.4649V23.6725C8.3823 24.1737 8.65067 24.6392 9.08717 24.8882L19.5405 30.9184L15.9095 33.0201C15.8707 33.0427 15.8222 33.0427 15.7834 33.0201L7.09867 28.0116C3.2413 25.7742 1.91563 20.8401 4.14017 16.973V17.0151L4.13693 17.0118ZM33.9741 23.9441L23.4884 17.8557L27.113 15.7638C27.1518 15.7411 27.2003 15.7411 27.2391 15.7638L35.9238 20.7819C39.7877 23.0129 41.1133 27.9534 38.8823 31.8172C37.9447 33.4436 36.467 34.6949 34.7049 35.3513V25.1437C34.6887 24.6425 34.4106 24.1866 33.9741 23.9441ZM37.589 18.5089L37.3336 18.3569L28.7523 13.3549C28.3158 13.0995 27.7758 13.0995 27.3393 13.3549L16.8439 19.411V15.2173C16.8407 15.1753 16.8601 15.13 16.8957 15.1074L25.5804 10.099C29.4507 7.86795 34.3977 9.20008 36.6255 13.0704C37.5664 14.7065 37.9091 16.6174 37.589 18.4765V18.5121V18.5089ZM14.8619 25.9423L11.2309 23.8503C11.1953 23.8277 11.1694 23.7921 11.163 23.7468V13.7365C11.1694 9.26798 14.794 5.65312 19.2625 5.65958C21.1475 5.65958 22.9743 6.32242 24.4229 7.52845L24.1674 7.67395L15.5765 12.6339C15.14 12.8893 14.8748 13.3549 14.8716 13.8593L14.8619 25.9455V25.9423ZM16.8342 21.6905L21.5129 18.9939L26.198 21.6905V27.0836L21.529 29.7803L16.8439 27.0836L16.8342 21.6905Z" fill="#6D6883"/>
<path d="M64.7948 25.4144C64.7948 27.1568 64.4684 28.6492 63.8157 29.8915C63.1682 31.1286 62.2838 32.0761 61.1626 32.7341C60.0466 33.3921 58.7806 33.7211 57.3646 33.7211C55.9486 33.7211 54.6799 33.3921 53.5587 32.7341C52.4427 32.0708 51.5584 31.1207 50.9056 29.8836C50.2581 28.6413 49.9344 27.1516 49.9344 25.4144C49.9344 23.672 50.2581 22.1823 50.9056 20.9453C51.5584 19.703 52.4427 18.7528 53.5587 18.0948C54.6799 17.4368 55.9486 17.1078 57.3646 17.1078C58.7806 17.1078 60.0466 17.4368 61.1626 18.0948C62.2838 18.7528 63.1682 19.703 63.8157 20.9453C64.4684 22.1823 64.7948 23.672 64.7948 25.4144ZM61.8496 25.4144C61.8496 24.1879 61.6574 23.1535 61.2731 22.3113C60.8941 21.4638 60.3677 20.8242 59.6939 20.3925C59.0201 19.9556 58.2437 19.7372 57.3646 19.7372C56.4855 19.7372 55.7091 19.9556 55.0353 20.3925C54.3615 20.8242 53.8324 21.4638 53.4482 22.3113C53.0691 23.1535 52.8796 24.1879 52.8796 25.4144C52.8796 26.641 53.0691 27.678 53.4482 28.5255C53.8324 29.3677 54.3615 30.0073 55.0353 30.4442C55.7091 30.8759 56.4855 31.0917 57.3646 31.0917C58.2437 31.0917 59.0201 30.8759 59.6939 30.4442C60.3677 30.0073 60.8941 29.3677 61.2731 28.5255C61.6574 27.678 61.8496 26.641 61.8496 25.4144ZM67.438 38.0481V21.3717H70.249V23.3773H70.4148C70.5622 23.0825 70.7701 22.7693 71.0386 22.4376C71.3071 22.1007 71.6703 21.8138 72.1282 21.577C72.5862 21.3348 73.1705 21.2137 73.8812 21.2137C74.8182 21.2137 75.663 21.4533 76.4158 21.9323C77.1738 22.406 77.7739 23.1088 78.2161 24.0405C78.6635 24.967 78.8873 26.104 78.8873 27.4516C78.8873 28.7834 78.6688 29.9152 78.2319 30.8469C77.795 31.7787 77.2001 32.4893 76.4474 32.9789C75.6946 33.4684 74.8419 33.7132 73.8891 33.7132C73.1942 33.7132 72.6178 33.5974 72.1598 33.3658C71.7019 33.1341 71.3334 32.8552 71.0544 32.5288C70.7807 32.1972 70.5675 31.8839 70.4148 31.5892H70.2964V38.0481H67.438ZM70.2411 27.4358C70.2411 28.2202 70.3516 28.9071 70.5727 29.4967C70.7991 30.0863 71.1228 30.5469 71.5439 30.8785C71.9703 31.2049 72.4862 31.3681 73.0916 31.3681C73.7232 31.3681 74.2523 31.1996 74.6787 30.8627C75.1051 30.5206 75.4262 30.0547 75.642 29.4651C75.8631 28.8703 75.9736 28.1939 75.9736 27.4358C75.9736 26.6831 75.8657 26.0145 75.6499 25.4302C75.4341 24.8459 75.113 24.388 74.6866 24.0563C74.2602 23.7247 73.7285 23.5589 73.0916 23.5589C72.4809 23.5589 71.9624 23.7194 71.536 24.0405C71.1097 24.3616 70.7859 24.8117 70.5648 25.3908C70.349 25.9698 70.2411 26.6515 70.2411 27.4358ZM86.7044 33.7369C85.4884 33.7369 84.4382 33.4842 83.5538 32.9789C82.6747 32.4682 81.9983 31.7471 81.5246 30.8153C81.0508 29.8783 80.8139 28.7755 80.8139 27.5069C80.8139 26.2593 81.0508 25.1644 81.5246 24.2221C82.0036 23.2746 82.6721 22.5376 83.5301 22.0112C84.3882 21.4796 85.3962 21.2137 86.5543 21.2137C87.3018 21.2137 88.0072 21.3348 88.6705 21.577C89.339 21.8138 89.9286 22.1823 90.4392 22.6824C90.9551 23.1825 91.3604 23.8194 91.6552 24.5932C91.95 25.3618 92.0974 26.2777 92.0974 27.3411V28.2175H82.1562V26.2909H89.3574C89.3522 25.7434 89.2337 25.2565 89.0021 24.8301C88.7705 24.3985 88.4468 24.0589 88.0309 23.8115C87.6203 23.5641 87.1413 23.4404 86.5938 23.4404C86.0095 23.4404 85.4963 23.5826 85.0541 23.8668C84.6119 24.1458 84.2671 24.5143 84.0197 24.9723C83.7776 25.425 83.6539 25.9224 83.6486 26.4646V28.1465C83.6486 28.8519 83.7776 29.4572 84.0355 29.9626C84.2934 30.4627 84.654 30.8469 85.1173 31.1154C85.5805 31.3786 86.1227 31.5102 86.7438 31.5102C87.1597 31.5102 87.5361 31.4523 87.873 31.3365C88.2099 31.2154 88.502 31.0391 88.7494 30.8074C88.9969 30.5758 89.1837 30.2889 89.3101 29.9468L91.9789 30.2468C91.8105 30.9522 91.4894 31.5681 91.0156 32.0945C90.5471 32.6156 89.947 33.021 89.2153 33.3105C88.4836 33.5948 87.6466 33.7369 86.7044 33.7369ZM97.3739 26.3935V33.5H94.5155V21.3717H97.2476V23.4325H97.3897C97.6687 22.7535 98.1135 22.2139 98.7241 21.8138C99.34 21.4138 100.101 21.2137 101.006 21.2137C101.843 21.2137 102.572 21.3927 103.193 21.7507C103.82 22.1086 104.304 22.6271 104.646 23.3062C104.994 23.9853 105.165 24.8091 105.159 25.7777V33.5H102.301V26.2198C102.301 25.4092 102.09 24.7749 101.669 24.3169C101.254 23.8589 100.677 23.6299 99.9401 23.6299C99.44 23.6299 98.9952 23.7405 98.6057 23.9616C98.2214 24.1774 97.9187 24.4906 97.6976 24.9012C97.4818 25.3118 97.3739 25.8092 97.3739 26.3935ZM110.268 33.5H107.141L112.834 17.3289H116.451L122.152 33.5H119.025L114.706 20.6452H114.579L110.268 33.5ZM110.371 27.1595H118.899V29.5125H110.371V27.1595ZM124.242 33.5V21.3717H127.101V33.5H124.242ZM125.679 19.6503C125.227 19.6503 124.837 19.5003 124.511 19.2002C124.184 18.8949 124.021 18.5291 124.021 18.1027C124.021 17.671 124.184 17.3052 124.511 17.0051C124.837 16.6998 125.227 16.5472 125.679 16.5472C126.137 16.5472 126.527 16.6998 126.848 17.0051C127.174 17.3052 127.337 17.671 127.337 18.1027C127.337 18.5291 127.174 18.8949 126.848 19.2002C126.527 19.5003 126.137 19.6503 125.679 19.6503Z" fill="#6D6883"/>
</g>
<defs>
<clipPath id="clip0_5_846">
<rect width="129" height="49" fill="white"/>
</clipPath>
</defs>
</svg>
