<svg xmlns="http://www.w3.org/2000/svg" width="96" height="49" viewBox="0 0 96 49" fill="none">
<path d="M94.4929 20.2556C94.5874 20.2556 94.682 20.2556 94.736 20.1611C94.7495 20.1206 94.763 20.0801 94.763 20.0396C94.763 19.9585 94.7225 19.891 94.655 19.8505C94.5875 19.8235 94.52 19.8235 94.3714 19.8235H94.3039V20.2421H94.4929V20.2556ZM94.3714 19.594C94.574 19.594 94.6685 19.594 94.7495 19.6345C95.0195 19.7155 95.0465 19.9585 95.0465 20.0396C95.0465 20.0531 95.0465 20.1071 95.033 20.1611C95.0195 20.2151 94.9925 20.3231 94.844 20.4176C94.817 20.4311 94.817 20.4311 94.7765 20.4446L95.114 21.0656H94.79L94.4929 20.4986H94.3039V21.0656H94.0069V19.594H94.3714ZM94.4929 21.6731C95.222 21.6731 95.8025 21.0791 95.8025 20.3636C95.8025 19.6345 95.222 19.054 94.4929 19.054C93.7774 19.054 93.1969 19.6345 93.1969 20.3636C93.1969 21.0791 93.7774 21.6731 94.4929 21.6731ZM93.4669 20.3636C93.4669 19.7965 93.9259 19.324 94.4929 19.324C95.0735 19.324 95.5325 19.7965 95.5325 20.3636C95.5325 20.9171 95.06 21.3896 94.4929 21.3896C93.9394 21.3896 93.4669 20.9171 93.4669 20.3636ZM84.3675 28.6935C82.6394 28.6935 81.1948 27.5324 80.7493 25.9528H90.3078L91.6308 23.9007H80.7358C81.1678 22.3212 82.6394 21.1466 84.354 21.1466H90.9423L92.2519 19.0945H84.2055C80.9788 19.0945 78.3732 21.7001 78.3732 24.9133C78.3732 28.1264 80.9788 30.7321 84.2055 30.7321H91.1178L92.4273 28.68H84.354L84.3675 28.6935ZM56.9746 30.7456C53.7615 30.7456 51.1559 28.1399 51.1559 24.9268C51.1559 21.7136 53.7615 19.108 56.9746 19.108H65.021L63.698 21.1601H57.1097C55.0306 21.1601 53.343 22.8477 53.343 24.9268C53.343 27.0059 55.0306 28.6935 57.1097 28.6935H65.183L63.86 30.7456H56.9476H56.9746ZM14.4476 28.6935C16.5267 28.6935 18.2278 27.0059 18.2278 24.9268C18.2278 22.8477 16.5402 21.1601 14.4476 21.1601H7.98079C5.90169 21.1601 4.21411 22.8477 4.21411 24.9268C4.21411 27.0059 5.90169 28.6935 7.98079 28.6935H14.4476ZM7.83228 30.7456C4.60562 30.7456 2 28.1399 2 24.9268C2 21.7136 4.60562 19.108 7.83228 19.108H14.5961C17.8093 19.108 20.4149 21.7136 20.4149 24.9268C20.4149 28.1399 17.8093 30.7456 14.5961 30.7456H7.83228ZM31.4044 26.9789C33.5915 26.9789 35.3466 25.2103 35.3466 23.0367C35.3466 20.8631 33.5915 19.0945 31.4044 19.0945H21.6029V30.7456H23.8441V21.1466H31.2559C32.282 21.1466 33.1325 21.9971 33.1325 23.0367C33.1325 24.0762 32.282 24.9133 31.2559 24.9133H24.9376L31.6069 30.7456H34.8606L30.3649 26.9789H31.3774H31.4044ZM68.4502 28.6935V19.108H66.2226V29.6385C66.2226 29.9355 66.3306 30.2055 66.5466 30.4215C66.7626 30.6241 67.0596 30.7591 67.3701 30.7591H77.5901L78.9132 28.707H68.4637L68.4502 28.6935ZM41.0439 26.6414H47.0247L43.8655 21.5516L38.0602 30.7591H35.4276L42.4749 19.7155C42.7855 19.27 43.2985 19 43.8655 19C44.4055 19 44.9186 19.2565 45.2291 19.6885L52.3034 30.7591H49.6573L48.4152 28.707H42.3669L41.0439 26.6549V26.6414Z" fill="#6D6883"/>
</svg>