<svg width="46" height="49" viewBox="0 0 46 49" fill="none" xmlns="http://www.w3.org/2000/svg">
<rect x="0.75" y="2" width="45" height="45" rx="5" fill="#6D6883"/>
<path fill-rule="evenodd" clip-rule="evenodd" d="M15.353 19.5488C15.353 19.3411 15.1847 19.1727 14.977 19.1727H12.7207C12.513 19.1727 12.3447 19.3411 12.3447 19.5488V25.6282C12.3447 25.8358 12.1763 26.0042 11.9686 26.0042L6.64136 26.0042C6.43368 26.0042 6.26531 25.8358 6.26531 25.6282V19.5488C6.26531 19.3411 6.09695 19.1728 5.88927 19.1728H3.633C3.42532 19.1728 3.25696 19.3411 3.25696 19.5488V28.6365C3.25696 28.8442 3.42532 29.0126 3.633 29.0126H6.2653C6.26531 29.0126 6.26531 29.0126 6.26531 29.0126C6.26531 29.0126 6.26532 29.0126 6.26533 29.0126L12.3447 29.0126L14.8516 29.0126L14.977 29.0126C15.1847 29.0126 15.353 28.8442 15.353 28.6365V19.5488Z" fill="white"/>
<rect x="35.7222" y="23.7479" width="3.07103" height="3.07103" rx="0.31337" fill="white"/>
<path fill-rule="evenodd" clip-rule="evenodd" d="M29.0787 29.2006C29.3556 29.2006 29.5801 28.9761 29.5801 28.6992V19.9345C29.5801 19.5138 29.239 19.1727 28.8183 19.1727C28.6615 19.1727 28.5084 19.2211 28.3801 19.3114L26.8979 20.3535C26.875 20.3643 26.8525 20.3768 26.8308 20.3913L23.303 22.7479L19.8952 20.4715L19.8939 20.4706L18.2452 19.3114C18.1169 19.2211 17.9639 19.1727 17.8071 19.1727C17.3863 19.1727 17.0453 19.5138 17.0453 19.9345V28.6992C17.0453 28.9761 17.2698 29.2006 17.5467 29.2006H19.5523C19.8292 29.2006 20.0536 28.9761 20.0536 28.6992V24.3638L22.9445 26.2949C22.9894 26.3249 23.0374 26.3467 23.0867 26.3606C23.2445 26.4447 23.4422 26.4414 23.6013 26.3351L26.5717 24.3509V28.6992C26.5717 28.9761 26.7962 29.2006 27.0731 29.2006H29.0787ZM31.147 28.5112C31.147 28.7881 31.3714 29.0126 31.6484 29.0126H33.6539C33.9308 29.0126 34.1553 28.7881 34.1553 28.5112V22.5571C34.1553 22.3494 34.3237 22.1811 34.5314 22.1811L39.8586 22.1811C40.0663 22.1811 40.2347 22.3494 40.2347 22.5571V28.5112C40.2347 28.7881 40.4592 29.0126 40.7361 29.0126H42.7416C43.0185 29.0126 43.243 28.7881 43.243 28.5112V19.6741C43.243 19.3972 43.0185 19.1727 42.7416 19.1727L42.2402 19.1727L40.7361 19.1727L40.7351 19.1727H33.6549L33.6539 19.1727L33.4032 19.1727L31.6484 19.1727C31.3714 19.1727 31.147 19.3972 31.147 19.6741V28.5112Z" fill="white"/>
</svg>
