<svg width="20" height="21" viewBox="0 0 20 21" fill="none" xmlns="http://www.w3.org/2000/svg">
<path d="M17.4085 11.6832C17.1749 11.0825 17.1749 10.4161 17.4085 9.81537L17.5454 9.44502C17.7856 8.81758 17.7768 8.12206 17.5208 7.5009C17.2649 6.87973 16.7811 6.37991 16.1687 6.1038L15.8064 5.91862C15.2302 5.65298 14.7677 5.1905 14.5021 4.61434L14.341 4.25204C14.0649 3.63957 13.5651 3.15583 12.9439 2.89988C12.3228 2.64393 11.6273 2.63513 10.9998 2.87529L10.6295 3.01216C10.0288 3.24581 9.36231 3.24581 8.76161 3.01216L8.39125 2.87529C7.76089 2.62794 7.05946 2.63298 6.43272 2.88937C5.80598 3.14577 5.30213 3.63379 5.02588 4.25204L4.8407 4.61434C4.57506 5.1905 4.11258 5.65298 3.53642 5.91862L3.17412 6.07965C2.56165 6.35576 2.07791 6.85558 1.82196 7.47674C1.56601 8.09791 1.55721 8.79343 1.79737 9.42087L1.93424 9.79122C2.16789 10.3919 2.16789 11.0584 1.93424 11.6591L1.79737 12.0294C1.55721 12.6569 1.56601 13.3524 1.82196 13.9736C2.07791 14.5947 2.56165 15.0945 3.17412 15.3707L3.53642 15.5317C4.12098 15.8092 4.58458 16.29 4.8407 16.8843L5.00173 17.2466C5.27784 17.859 5.77766 18.3428 6.39882 18.5987C7.01999 18.8547 7.71551 18.8635 8.34295 18.6233L8.7133 18.4864C9.314 18.2528 9.98046 18.2528 10.5812 18.4864L10.9515 18.6233C11.579 18.8635 12.2745 18.8547 12.8956 18.5987C13.5168 18.3428 14.0166 17.859 14.2927 17.2466L14.4538 16.8843C14.7313 16.2997 15.2121 15.8361 15.8064 15.58L16.1687 15.419C16.7811 15.1428 17.2649 14.643 17.5208 14.0219C17.7768 13.4007 17.7856 12.7052 17.5454 12.0777L17.4085 11.6832ZM13.1736 8.9217L8.64889 13.4464C8.61275 13.4849 8.5691 13.5156 8.52063 13.5366C8.47217 13.5576 8.41991 13.5684 8.3671 13.5684C8.31429 13.5684 8.26204 13.5576 8.21357 13.5366C8.1651 13.5156 8.12145 13.4849 8.08531 13.4464L6.16914 11.5544C6.13141 11.517 6.10146 11.4725 6.08102 11.4234C6.06059 11.3744 6.05007 11.3217 6.05007 11.2686C6.05007 11.2155 6.06059 11.1628 6.08102 11.1138C6.10146 11.0647 6.13141 11.0202 6.16914 10.9828L6.59585 10.5561C6.63199 10.5176 6.67564 10.4869 6.72411 10.4659C6.77258 10.4449 6.82483 10.4341 6.87764 10.4341C6.93045 10.4341 6.98271 10.4449 7.03117 10.4659C7.07964 10.4869 7.12329 10.5176 7.15943 10.5561L8.3671 11.7557L12.1833 7.93946C12.2586 7.8657 12.3598 7.82439 12.4651 7.82439C12.5705 7.82439 12.6717 7.8657 12.7469 7.93946L13.1736 8.36617C13.245 8.44104 13.2848 8.5405 13.2848 8.64393C13.2848 8.74737 13.245 8.84683 13.1736 8.9217Z" fill="white"/>
</svg>
