<svg width="108" height="32" viewBox="0 0 108 32" fill="none" xmlns="http://www.w3.org/2000/svg">
<path d="M43.4833 21L41.5933 18.33L40.0033 21H37.6783L40.4233 16.665L37.6183 12.69H39.9883L41.8333 15.315L43.4233 12.69H45.7483L42.9583 16.905L45.8533 21H43.4833ZM58.354 10.53V21H56.254V13.695L53.569 21H51.739L49.054 13.725V21H46.939V10.53H49.504L52.684 18.405L55.804 10.53H58.354ZM63.5241 12.585C64.2241 12.585 64.8241 12.75 65.3241 13.08C65.8241 13.41 66.1791 13.855 66.3891 14.415V12.69H68.4891V21H66.3891V19.26C66.1791 19.82 65.8241 20.27 65.3241 20.61C64.8241 20.94 64.2241 21.105 63.5241 21.105C62.8241 21.105 62.1941 20.935 61.6341 20.595C61.0741 20.255 60.6341 19.765 60.3141 19.125C60.0041 18.475 59.8491 17.715 59.8491 16.845C59.8491 15.975 60.0041 15.22 60.3141 14.58C60.6341 13.93 61.0741 13.435 61.6341 13.095C62.1941 12.755 62.8241 12.585 63.5241 12.585ZM64.1841 14.43C63.5241 14.43 62.9941 14.645 62.5941 15.075C62.1941 15.505 61.9941 16.095 61.9941 16.845C61.9941 17.595 62.1941 18.185 62.5941 18.615C62.9941 19.035 63.5241 19.245 64.1841 19.245C64.8241 19.245 65.3491 19.03 65.7591 18.6C66.1791 18.16 66.3891 17.575 66.3891 16.845C66.3891 16.105 66.1791 15.52 65.7591 15.09C65.3491 14.65 64.8241 14.43 64.1841 14.43ZM72.5208 14.28C72.8308 13.75 73.2408 13.335 73.7508 13.035C74.2608 12.725 74.8308 12.57 75.4608 12.57V14.835H74.8458C73.2958 14.835 72.5208 15.555 72.5208 16.995V21H70.4058V12.69H72.5208V14.28ZM81.4914 21L78.7464 17.37V21H76.6314V9.9H78.7464V16.14L81.4764 12.69H83.9814L80.4864 16.83L84.0714 21H81.4914ZM92.9132 16.53C92.9132 16.74 92.8882 16.98 92.8382 17.25H86.7482C86.7782 17.99 86.9782 18.535 87.3482 18.885C87.7182 19.235 88.1782 19.41 88.7282 19.41C89.2182 19.41 89.6232 19.29 89.9432 19.05C90.2732 18.81 90.4832 18.485 90.5732 18.075H92.8082C92.6982 18.655 92.4632 19.175 92.1032 19.635C91.7432 20.095 91.2782 20.455 90.7082 20.715C90.1482 20.975 89.5232 21.105 88.8332 21.105C88.0232 21.105 87.3032 20.935 86.6732 20.595C86.0432 20.245 85.5532 19.75 85.2032 19.11C84.8532 18.47 84.6782 17.715 84.6782 16.845C84.6782 15.975 84.8532 15.22 85.2032 14.58C85.5532 13.93 86.0432 13.435 86.6732 13.095C87.3032 12.755 88.0232 12.585 88.8332 12.585C89.6532 12.585 90.3682 12.755 90.9782 13.095C91.5982 13.435 92.0732 13.905 92.4032 14.505C92.7432 15.095 92.9132 15.77 92.9132 16.53ZM90.7832 16.32C90.8132 15.64 90.6332 15.125 90.2432 14.775C89.8632 14.425 89.3932 14.25 88.8332 14.25C88.2632 14.25 87.7832 14.425 87.3932 14.775C87.0032 15.125 86.7882 15.64 86.7482 16.32H90.7832ZM98.8546 19.185V21H97.7446C96.8146 21 96.0996 20.775 95.5996 20.325C95.1096 19.875 94.8646 19.125 94.8646 18.075V14.475H93.7096V12.69H94.8646V10.635H96.9796V12.69H98.8396V14.475H96.9796V18.105C96.9796 18.505 97.0596 18.785 97.2196 18.945C97.3796 19.105 97.6496 19.185 98.0296 19.185H98.8546ZM103.242 12.585C104.252 12.585 105.062 12.84 105.672 13.35C106.282 13.86 106.662 14.54 106.812 15.39H104.832C104.752 14.99 104.572 14.67 104.292 14.43C104.012 14.19 103.647 14.07 103.197 14.07C102.837 14.07 102.557 14.155 102.357 14.325C102.157 14.495 102.057 14.725 102.057 15.015C102.057 15.245 102.137 15.43 102.297 15.57C102.457 15.71 102.657 15.82 102.897 15.9C103.137 15.98 103.482 16.075 103.932 16.185C104.562 16.325 105.072 16.475 105.462 16.635C105.862 16.785 106.202 17.03 106.482 17.37C106.772 17.7 106.917 18.15 106.917 18.72C106.917 19.43 106.637 20.005 106.077 20.445C105.527 20.885 104.782 21.105 103.842 21.105C102.762 21.105 101.897 20.865 101.247 20.385C100.597 19.895 100.202 19.2 100.062 18.3H102.087C102.137 18.71 102.317 19.035 102.627 19.275C102.937 19.505 103.342 19.62 103.842 19.62C104.202 19.62 104.477 19.535 104.667 19.365C104.857 19.185 104.952 18.955 104.952 18.675C104.952 18.435 104.867 18.24 104.697 18.09C104.537 17.94 104.332 17.825 104.082 17.745C103.842 17.665 103.497 17.57 103.047 17.46C102.427 17.32 101.922 17.18 101.532 17.04C101.152 16.89 100.822 16.655 100.542 16.335C100.272 16.015 100.137 15.575 100.137 15.015C100.137 14.295 100.412 13.71 100.962 13.26C101.512 12.81 102.272 12.585 103.242 12.585Z" fill="black"/>
<circle cx="16" cy="16" r="16" fill="black"/>
<g clip-path="url(#clip0_112_851)">
<path d="M13.7839 16.1516V15.8669L13.8655 15.7481L16.8142 11.5332V10.5345H14.2694L12.0619 13.6882L9.85275 10.5345H6.61011L14.271 21.482L18.2186 21.4805L22.8543 14.862V21.4805H25.5102V10.8959L25.252 10.5345H22.6374L16.2451 19.6706L13.7839 16.1516Z" fill="white"/>
<path d="M10.8847 20.008L9.26284 17.6902L6.97729 20.955V21.482H9.85115L10.8847 20.008Z" fill="white"/>
</g>
<defs>
<clipPath id="clip0_112_851">
<rect width="18.9001" height="10.9476" fill="white" transform="translate(6.61011 10.5345)"/>
</clipPath>
</defs>
</svg>
