<svg width="150" height="40" viewBox="0 0 150 40" fill="none" xmlns="http://www.w3.org/2000/svg">
<circle cx="20" cy="20" r="20" fill="black"/>
<path fill-rule="evenodd" clip-rule="evenodd" d="M23.427 6.5H27.5473L14.7346 23.1655C14.4685 23.5116 14.0568 23.7144 13.6203 23.7144H9.5L22.3128 7.04883C22.5788 6.70279 22.9905 6.5 23.427 6.5ZM26.427 14.5H30.5473L17.7346 31.1655C17.4685 31.5116 17.0568 31.7144 16.6203 31.7144H12.5L25.3128 15.0488C25.5788 14.7028 25.9905 14.5 26.427 14.5Z" fill="white"/>
<path d="M51.1856 28L54.7856 23L51.2256 18.08H54.1456L56.4056 21.38H56.7656L59.0256 18.08H61.9456L58.3856 23L61.9856 28H59.0256L56.7656 24.66H56.4056L54.1456 28H51.1856ZM64.4216 28V14H69.3216L71.7416 26.2H72.1016L74.5216 14H79.4216V28H76.8616V15.94H76.5016L74.1016 28H69.7416L67.3416 15.94H66.9816V28H64.4216ZM85.8183 28.28C85.1116 28.28 84.4783 28.16 83.9183 27.92C83.3583 27.6667 82.9116 27.3067 82.5783 26.84C82.2583 26.36 82.0983 25.78 82.0983 25.1C82.0983 24.42 82.2583 23.8533 82.5783 23.4C82.9116 22.9333 83.365 22.5867 83.9383 22.36C84.525 22.12 85.1916 22 85.9383 22H88.6583V21.44C88.6583 20.9733 88.5116 20.5933 88.2183 20.3C87.925 19.9933 87.4583 19.84 86.8183 19.84C86.1916 19.84 85.725 19.9867 85.4183 20.28C85.1116 20.56 84.9116 20.9267 84.8183 21.38L82.4983 20.6C82.6583 20.0933 82.9116 19.6333 83.2583 19.22C83.6183 18.7933 84.0916 18.4533 84.6783 18.2C85.2783 17.9333 86.005 17.8 86.8583 17.8C88.165 17.8 89.1983 18.1267 89.9583 18.78C90.7183 19.4333 91.0983 20.38 91.0983 21.62V25.32C91.0983 25.72 91.285 25.92 91.6583 25.92H92.4583V28H90.7783C90.285 28 89.8783 27.88 89.5583 27.64C89.2383 27.4 89.0783 27.08 89.0783 26.68V26.66H88.6983C88.645 26.82 88.525 27.0333 88.3383 27.3C88.1516 27.5533 87.8583 27.78 87.4583 27.98C87.0583 28.18 86.5116 28.28 85.8183 28.28ZM86.2583 26.24C86.965 26.24 87.5383 26.0467 87.9783 25.66C88.4316 25.26 88.6583 24.7333 88.6583 24.08V23.88H86.1183C85.6516 23.88 85.285 23.98 85.0183 24.18C84.7516 24.38 84.6183 24.66 84.6183 25.02C84.6183 25.38 84.7583 25.6733 85.0383 25.9C85.3183 26.1267 85.725 26.24 86.2583 26.24ZM94.9008 28V18.08H97.3808V19.2H97.7408C97.8874 18.8 98.1274 18.5067 98.4608 18.32C98.8074 18.1333 99.2074 18.04 99.6608 18.04H100.861V20.28H99.6208C98.9808 20.28 98.4541 20.4533 98.0408 20.8C97.6274 21.1333 97.4208 21.6533 97.4208 22.36V28H94.9008ZM103.43 28V14H105.95V21.74H106.31L109.59 18.08H112.87L108.29 22.88L113.03 28H109.79L106.31 24.06H105.95V28H103.43ZM119.234 28.28C118.247 28.28 117.374 28.0733 116.614 27.66C115.867 27.2333 115.281 26.64 114.854 25.88C114.441 25.1067 114.234 24.2 114.234 23.16V22.92C114.234 21.88 114.441 20.98 114.854 20.22C115.267 19.4467 115.847 18.8533 116.594 18.44C117.341 18.0133 118.207 17.8 119.194 17.8C120.167 17.8 121.014 18.02 121.734 18.46C122.454 18.8867 123.014 19.4867 123.414 20.26C123.814 21.02 124.014 21.9067 124.014 22.92V23.78H116.794C116.821 24.46 117.074 25.0133 117.554 25.44C118.034 25.8667 118.621 26.08 119.314 26.08C120.021 26.08 120.541 25.9267 120.874 25.62C121.207 25.3133 121.461 24.9733 121.634 24.6L123.694 25.68C123.507 26.0267 123.234 26.4067 122.874 26.82C122.527 27.22 122.061 27.5667 121.474 27.86C120.887 28.14 120.141 28.28 119.234 28.28ZM116.814 21.9H121.454C121.401 21.3267 121.167 20.8667 120.754 20.52C120.354 20.1733 119.827 20 119.174 20C118.494 20 117.954 20.1733 117.554 20.52C117.154 20.8667 116.907 21.3267 116.814 21.9ZM130.325 28C129.672 28 129.138 27.8 128.725 27.4C128.325 26.9867 128.125 26.44 128.125 25.76V20.16H125.645V18.08H128.125V15H130.645V18.08H133.365V20.16H130.645V25.32C130.645 25.72 130.832 25.92 131.205 25.92H133.125V28H130.325ZM140.366 28.28C139.073 28.28 138.013 28 137.186 27.44C136.359 26.88 135.859 26.08 135.686 25.04L138.006 24.44C138.099 24.9067 138.253 25.2733 138.466 25.54C138.693 25.8067 138.966 26 139.286 26.12C139.619 26.2267 139.979 26.28 140.366 26.28C140.953 26.28 141.386 26.18 141.666 25.98C141.946 25.7667 142.086 25.5067 142.086 25.2C142.086 24.8933 141.953 24.66 141.686 24.5C141.419 24.3267 140.993 24.1867 140.406 24.08L139.846 23.98C139.153 23.8467 138.519 23.6667 137.946 23.44C137.373 23.2 136.913 22.8733 136.566 22.46C136.219 22.0467 136.046 21.5133 136.046 20.86C136.046 19.8733 136.406 19.12 137.126 18.6C137.846 18.0667 138.793 17.8 139.966 17.8C141.073 17.8 141.993 18.0467 142.726 18.54C143.459 19.0333 143.939 19.68 144.166 20.48L141.826 21.2C141.719 20.6933 141.499 20.3333 141.166 20.12C140.846 19.9067 140.446 19.8 139.966 19.8C139.486 19.8 139.119 19.8867 138.866 20.06C138.613 20.22 138.486 20.4467 138.486 20.74C138.486 21.06 138.619 21.3 138.886 21.46C139.153 21.6067 139.513 21.72 139.966 21.8L140.526 21.9C141.273 22.0333 141.946 22.2133 142.546 22.44C143.159 22.6533 143.639 22.9667 143.986 23.38C144.346 23.78 144.526 24.3267 144.526 25.02C144.526 26.06 144.146 26.8667 143.386 27.44C142.639 28 141.633 28.28 140.366 28.28Z" fill="black"/>
</svg>
